<svg xmlns="http://www.w3.org/2000/svg" version="1.1" xmlns:xlink="http://www.w3.org/1999/xlink" xmlns:svgjs="http://svgjs.dev/svgjs" width="1000" height="275" viewBox="0 0 1000 275"><g transform="matrix(1,0,0,1,2.3820846603851464,0.516843720728815)"><svg viewBox="0 0 396 109" data-background-color="#ffffff" preserveAspectRatio="xMidYMid meet" height="275" width="1000" xmlns="http://www.w3.org/2000/svg" xmlns:xlink="http://www.w3.org/1999/xlink"><g id="tight-bounds" transform="matrix(1,0,0,1,0.25332997291093307,-0.20485805657978062)"><svg viewBox="0 0 395.52 109.40971611315959" height="109.40971611315959" width="395.52"><g><svg viewBox="0 0 601.2274665822916 166.31302194124868" height="109.40971611315959" width="395.52"><g><rect width="5.478035791153173" height="166.31302194124868" x="185.88902296089458" y="0" fill="#222222" opacity="1" stroke-width="0" stroke="transparent" fill-opacity="1" class="rect-o-0" data-fill-palette-color="primary" rx="1%" id="o-0" data-palette-color="#222222"></rect></g><g transform="matrix(1,0,0,1,205.70746658229166,0.4137139849284637)"><svg viewBox="0 0 395.52 165.48559397139175" height="165.48559397139175" width="395.52"><g id="textblocktransform"><svg viewBox="0 0 395.52 165.48559397139175" height="165.48559397139175" width="395.52" id="textblock"><g><svg viewBox="0 0 395.52 130.5336585365854" height="130.5336585365854" width="395.52"><g transform="matrix(1,0,0,1,0,0)"><svg width="395.52" viewBox="0.39999985694885254 -39.60000228881836 262.3999938964844 83.60000610351562" height="130.5336585365854" data-palette-color="#222222"><svg></svg><svg></svg><g class="wordmark-text-0" data-fill-palette-color="primary" id="text-0"><path xmlns="http://www.w3.org/2000/svg" d="M16.5 0.7c-3.2 0-6.223-0.277-9.07-0.83-2.853-0.547-5.047-1.17-6.58-1.87v0-9.9h11c0 1.033 0.233 1.783 0.7 2.25 0.467 0.467 1.317 0.7 2.55 0.7v0c1.033 0 1.773-0.16 2.22-0.48 0.453-0.313 0.68-0.787 0.68-1.42v0c0-0.533-0.217-0.993-0.65-1.38-0.433-0.38-1.183-0.77-2.25-1.17v0l-4.3-1.5c-3.7-1.4-6.357-3.05-7.97-4.95-1.62-1.9-2.43-4.467-2.43-7.7v0c0-3.933 1.293-6.923 3.88-8.97 2.58-2.053 6.887-3.08 12.92-3.08v0c2.9 0 5.627 0.29 8.18 0.87 2.547 0.587 4.603 1.363 6.17 2.33v0 8.95h-10c0-1.667-1.033-2.5-3.1-2.5v0c-1 0-1.71 0.123-2.13 0.37-0.413 0.253-0.62 0.697-0.62 1.33v0c0 0.567 0.243 1.017 0.73 1.35 0.48 0.333 1.27 0.683 2.37 1.05v0l4.35 1.5c3.533 1.2 6.11 2.757 7.73 4.67 1.613 1.92 2.42 4.43 2.42 7.53v0c0 4.233-1.423 7.433-4.27 9.6-2.853 2.167-7.03 3.25-12.53 3.25zM74.7-38.9v8.2h-2.5v22.5h2.5v8.2h-18.9v-8.2h2.4v-8.25h-7v8.25h2.4v8.2h-18.9v-8.2h2.5v-22.5h-2.5v-8.2h18.9v8.2h-2.4v7.6h7v-7.6h-2.4v-8.2zM104.95-38.9l8.45 30.7h2v8.2h-19.6v-8.2h3l-0.8-4h-6.8l-0.8 4h3v8.2h-17.1v-8.2h2l8.45-30.7zM94.35-27.45l-2.05 9.95h4.6l-2.05-9.95zM117 0v-8.2h2.5v-22.5h-2.5v-8.2h22.95c4.3 0 7.583 0.883 9.85 2.65 2.267 1.767 3.4 4.633 3.4 8.6v0c0 2.233-0.45 4.167-1.35 5.8-0.9 1.633-2.183 2.767-3.85 3.4v0l0.05 0.5c3.2 0.5 4.8 2.467 4.8 5.9v0 3.85h2.35v8.2h-15.85v-11.75c0-1.3-0.19-2.283-0.57-2.95-0.387-0.667-0.99-1.117-1.81-1.35-0.813-0.233-1.97-0.35-3.47-0.35v0 8.2h3.3v8.2zM133.5-22.5h2.7c0.967 0 1.693-0.26 2.18-0.78 0.48-0.513 0.72-1.32 0.72-2.42v0-1.8c0-1.1-0.24-1.91-0.72-2.43-0.487-0.513-1.213-0.77-2.18-0.77v0h-2.7zM176 0h-19v-8.2h2.5v-22.5h-2.5v-8.2h19v8.2h-2.5v22.5h2.5zM206.8-30.7v-8.2h16.4v8.2h-2.5v30.7h-14.05l-14.65-22.55v14.35h2.4v8.2h-16.4v-8.2h2.5v-22.5h-2.5v-8.2h18.05l13.15 20.05v-11.85zM262.8-19.95v7.45h-2.5v10c-1.467 0.833-3.607 1.573-6.42 2.22-2.82 0.653-5.863 0.98-9.13 0.98v0c-6.233 0-11.117-1.643-14.65-4.93-3.533-3.28-5.3-8.353-5.3-15.22v0c0-7.033 1.757-12.15 5.27-15.35 3.52-3.2 8.547-4.8 15.08-4.8v0c3.167 0 6.133 0.333 8.9 1 2.767 0.667 4.85 1.417 6.25 2.25v0 11.95h-12.5v-2.35c0-1.4-0.29-2.41-0.87-3.03-0.587-0.613-1.513-0.92-2.78-0.92v0c-1.267 0-2.19 0.307-2.77 0.92-0.587 0.62-0.88 1.63-0.88 3.03v0 14.6c0 1.4 0.293 2.407 0.88 3.02 0.58 0.62 1.503 0.93 2.77 0.93v0c1.267 0 2.193-0.31 2.78-0.93 0.58-0.613 0.87-1.62 0.87-3.02v0-0.35h-2.7v-7.45z" fill="#222222" fill-rule="nonzero" stroke="none" stroke-width="1" stroke-linecap="butt" stroke-linejoin="miter" stroke-miterlimit="10" stroke-dasharray="" stroke-dashoffset="0" font-family="none" font-weight="none" font-size="none" text-anchor="none" style="mix-blend-mode: normal" data-fill-palette-color="primary" opacity="1"></path><path xmlns="http://www.w3.org/2000/svg" d="M41 4.4v8.2h-2.5v22.5h2.5v8.2h-18.9v-8.2h2.4v-8.25h-7v8.25h2.4v8.2h-18.9v-8.2h2.5v-22.5h-2.5v-8.2h18.9v8.2h-2.4v7.6h7v-7.6h-2.4v-8.2zM76.75 43.3h-33.75v-8.2h2.5v-22.5h-2.5v-8.2h33.75v15.1h-11.2v-6.9h-6.05v7.9h4.4v5.7h-4.4v8.9h6.05v-7.9h11.2zM106.9 4.4l8.45 30.7h2v8.2h-19.6v-8.2h3l-0.8-4h-6.8l-0.8 4h3v8.2h-17.1v-8.2h2l8.45-30.7zM96.3 15.85l-2.05 9.95h4.6l-2.05-9.95zM118.95 43.3v-8.2h2.5v-22.5h-2.5v-8.2h22.95c4.3 0 7.583 0.883 9.85 2.65 2.267 1.767 3.4 4.633 3.4 8.6v0c0 2.233-0.45 4.167-1.35 5.8-0.9 1.633-2.183 2.767-3.85 3.4v0l0.05 0.5c3.2 0.5 4.8 2.467 4.8 5.9v0 3.85h2.35v8.2h-15.85v-11.75c0-1.3-0.19-2.283-0.57-2.95-0.387-0.667-0.987-1.117-1.8-1.35-0.82-0.233-1.98-0.35-3.48-0.35v0 8.2h3.3v8.2zM135.45 20.8h2.7c0.967 0 1.693-0.26 2.18-0.78 0.48-0.513 0.72-1.32 0.72-2.42v0-1.8c0-1.1-0.24-1.91-0.72-2.43-0.487-0.513-1.213-0.77-2.18-0.77v0h-2.7zM194.45 4.4v12.1h-8.6v-3.9h-3.2v22.5h3.5v8.2h-21v-8.2h3.5v-22.5h-3.2v3.9h-8.6v-12.1zM211.65 44c-3.2 0-6.223-0.277-9.07-0.83-2.853-0.547-5.047-1.17-6.58-1.87v0-9.9h11c0 1.033 0.233 1.783 0.7 2.25 0.467 0.467 1.317 0.7 2.55 0.7v0c1.033 0 1.773-0.16 2.22-0.48 0.453-0.313 0.68-0.787 0.68-1.42v0c0-0.533-0.217-0.993-0.65-1.38-0.433-0.38-1.183-0.77-2.25-1.17v0l-4.3-1.5c-3.7-1.4-6.36-3.05-7.98-4.95-1.613-1.9-2.42-4.467-2.42-7.7v0c0-3.933 1.293-6.923 3.88-8.97 2.58-2.053 6.887-3.08 12.92-3.08v0c2.9 0 5.627 0.29 8.18 0.87 2.547 0.587 4.603 1.363 6.17 2.33v0 8.95h-10c0-1.667-1.033-2.5-3.1-2.5v0c-1 0-1.71 0.123-2.13 0.37-0.413 0.253-0.62 0.697-0.62 1.33v0c0 0.567 0.243 1.017 0.73 1.35 0.48 0.333 1.27 0.683 2.37 1.05v0l4.35 1.5c3.533 1.2 6.11 2.757 7.73 4.67 1.613 1.92 2.42 4.43 2.42 7.53v0c0 4.233-1.423 7.433-4.27 9.6-2.853 2.167-7.03 3.25-12.53 3.25z" fill="#222222" fill-rule="nonzero" stroke="none" stroke-width="1" stroke-linecap="butt" stroke-linejoin="miter" stroke-miterlimit="10" stroke-dasharray="" stroke-dashoffset="0" font-family="none" font-weight="none" font-size="none" text-anchor="none" style="mix-blend-mode: normal" data-fill-palette-color="primary" opacity="1"></path></g></svg></g></svg></g><g transform="matrix(1,0,0,1,0,144.8740663668293)"><svg viewBox="0 0 232.209792 20.611527604562447" height="20.611527604562447" width="232.209792"><g transform="matrix(1,0,0,1,0,0)"><svg width="232.209792" viewBox="5.760000228881836 -41.939998626708984 597.63134765625 53.04999923706055" height="20.611527604562447" data-palette-color="#222222"><path d="M5.76 0L5.76-37.35 27.22-37.35 27.22-33.74 9.91-33.74 9.91-19.07 24.93-19.07 24.93-15.48 9.91-15.48 9.91 0 5.76 0ZM37.42-36.01L37.42-36.01Q35.79-36.01 35.32-36.47L35.32-36.47Q34.59-37.23 34.59-38.56 34.59-39.89 34.75-40.47 34.91-41.04 35.23-41.36L35.23-41.36Q35.81-41.94 37.02-41.94 38.23-41.94 38.75-41.82 39.28-41.7 39.62-41.36L39.62-41.36Q40.21-40.77 40.21-39.44 40.21-38.11 40.07-37.54 39.94-36.96 39.62-36.62L39.62-36.62Q39.01-36.01 37.42-36.01ZM35.5 0L35.45-29.05 39.45-29.05 39.45 0 35.5 0ZM64.94-25.73L64.94-25.73Q60.18-25.73 55.24-22.92L55.24-22.92 55.24 0 51.19 0 51.19-29.05 54.76-29.05 55.15-26.05Q57.81-28.22 61.76-29.15L61.76-29.15Q63.37-29.54 65.55-29.54 67.72-29.54 69.38-29.04 71.04-28.54 72.02-27.44L72.02-27.44Q73.8-25.46 73.8-20.24L73.8-20.24 73.8 0 69.7 0 69.7-19.48Q69.7-23 69.01-24.01 68.33-25.02 67.39-25.38 66.45-25.73 64.94-25.73ZM103.95 0.1L103.36-3.25Q98.21 0.49 92.89 0.49L92.89 0.49Q87 0.49 85.05-3.83L85.05-3.83Q83.93-6.27 83.79-9 83.66-11.72 83.66-13.78 83.66-15.84 83.7-17.94 83.73-20.04 84-21.83 84.27-23.61 84.84-25.04 85.42-26.46 86.49-27.47L86.49-27.47Q88.71-29.54 93.83-29.54 98.94-29.54 103.07-27.76L103.07-27.76 103.07-41.55 107.12-41.94 107.12-13.35Q107.12-4.93 107.59-0.2L107.59-0.2 103.95 0.1ZM103.04-13.55L103.07-24.41Q98.67-25.88 94.57-25.88L94.57-25.88Q91.59-25.88 90.64-25.39 89.69-24.9 89.19-24.12 88.69-23.34 88.37-21.97L88.37-21.97Q87.81-19.41 87.81-13.53L87.81-13.53 87.81-12.99Q87.81-7.5 89.01-5.4L89.01-5.4Q90.3-3.17 93.82-3.17L93.82-3.17 94.18-3.17Q97.55-3.17 101.36-5.32L101.36-5.32Q102.41-5.91 103.17-6.49L103.17-6.49 103.17-6.54Q103.04-8.81 103.04-13.55L103.04-13.55ZM134.17-1.73L134.17-1.73 134.17 11.11 130.11 11.11 130.11-29.05 133.41-29.05 133.87-26.05Q136.73-28.2 141.32-29.2L141.32-29.2Q142.98-29.54 144.93-29.54 146.89-29.54 148.39-29.03 149.89-28.52 150.87-27.6 151.84-26.68 152.38-25.42 152.92-24.15 153.19-22.66L153.19-22.66Q153.53-20.61 153.53-16.11L153.53-16.11 153.53-15.55Q153.53-9.84 153.14-7.64 152.75-5.44 152.11-4.02 151.48-2.59 150.35-1.59L150.35-1.59Q148.03 0.49 143.18 0.49 138.32 0.49 134.17-1.73ZM134.17-22.92L134.17-5.08Q138.32-3.17 142.88-3.17L142.88-3.17Q145.86-3.17 147.23-4.27L147.23-4.27Q149.08-5.79 149.3-11.33L149.3-11.33Q149.38-13.16 149.38-15.53L149.38-15.53 149.38-16.06Q149.38-21.68 148.4-23.58L148.4-23.58Q147.3-25.76 143.86-25.76L143.86-25.76 143.49-25.76Q139.9-25.76 136.05-23.97L136.05-23.97Q134.92-23.46 134.17-22.92L134.17-22.92ZM185.12-5.03L186.31-1.54Q181.26 0.49 175.16 0.49L175.16 0.49Q171.62 0.49 169.15-0.24L169.15-0.24Q165.22-1.37 163.93-4.88L163.93-4.88Q162.73-8.18 162.73-14.65L162.73-14.65 162.73-15.89Q162.73-23.63 165.95-26.76L165.95-26.76Q168.86-29.54 175.64-29.54L175.64-29.54Q182.26-29.54 184.68-26.27L184.68-26.27Q185.85-24.68 186.23-22.42 186.61-20.17 186.61-18.12L186.61-18.12Q186.61-14.92 186.46-13.16L186.46-13.16Q183.02-13.01 180.28-13.01L180.28-13.01Q180.28-13.01 176.35-13.01L176.35-13.01Q170.2-13.01 166.88-13.55L166.88-13.55Q166.88-7.93 168.3-5.71L168.3-5.71Q170.03-3 175.2-3 180.38-3 185.12-5.03L185.12-5.03ZM166.88-16.41L182.48-16.41 182.48-18.75Q182.48-22.58 180.99-24.22L180.99-24.22Q179.33-26.05 175.25-26.05L175.25-26.05Q170.37-26.05 168.59-23.93L168.59-23.93Q166.88-21.9 166.88-16.41L166.88-16.41ZM196-14.45L196-14.45Q196-20 196.56-22.19 197.13-24.39 197.94-25.67 198.76-26.95 200.15-27.81L200.15-27.81Q202.94-29.54 208.38-29.54L208.38-29.54Q216.24-29.54 218.49-25.66L218.49-25.66Q219.83-23.32 220.03-19.04L220.03-19.04Q220.1-17.02 220.1-14.58 220.1-12.13 219.94-10.02 219.78-7.91 219.32-6.23 218.85-4.54 218.02-3.28 217.19-2.03 215.83-1.17L215.83-1.17Q213.14 0.49 207.99 0.49L207.99 0.49Q200.28 0.49 197.86-3.32L197.86-3.32Q196.37-5.69 196.13-9.96L196.13-9.96Q196-12.01 196-14.45ZM202.64-4.27Q203.52-3.61 204.85-3.28 206.18-2.95 208.49-2.95 210.8-2.95 212.37-3.61 213.95-4.27 214.74-5.73 215.53-7.18 215.74-9.5 215.95-11.82 215.95-14.89 215.95-17.97 215.77-20.02 215.58-22.07 214.85-23.41L214.85-23.41Q213.39-26.05 208.33-26.05L208.33-26.05Q202.99-26.05 201.37-23.41L201.37-23.41Q200.57-22.07 200.35-20 200.13-17.92 200.13-15.48 200.13-13.04 200.19-11.34 200.25-9.64 200.51-8.29 200.76-6.93 201.26-5.93 201.76-4.93 202.64-4.27ZM234.04-1.73L234.04-1.73 234.04 11.11 229.98 11.11 229.98-29.05 233.28-29.05 233.74-26.05Q236.6-28.2 241.19-29.2L241.19-29.2Q242.85-29.54 244.8-29.54 246.76-29.54 248.26-29.03 249.76-28.52 250.74-27.6 251.71-26.68 252.25-25.42 252.79-24.15 253.06-22.66L253.06-22.66Q253.4-20.61 253.4-16.11L253.4-16.11 253.4-15.55Q253.4-9.84 253.01-7.64 252.62-5.44 251.98-4.02 251.35-2.59 250.22-1.59L250.22-1.59Q247.9 0.49 243.05 0.49 238.19 0.49 234.04-1.73ZM234.04-22.92L234.04-5.08Q238.19-3.17 242.75-3.17L242.75-3.17Q245.73-3.17 247.1-4.27L247.1-4.27Q248.95-5.79 249.17-11.33L249.17-11.33Q249.25-13.16 249.25-15.53L249.25-15.53 249.25-16.06Q249.25-21.68 248.27-23.58L248.27-23.58Q247.17-25.76 243.73-25.76L243.73-25.76 243.36-25.76Q239.77-25.76 235.92-23.97L235.92-23.97Q234.79-23.46 234.04-22.92L234.04-22.92ZM264.36 0L264.31-41.5 268.34-41.85 268.34 0 264.36 0ZM301.66-5.03L302.86-1.54Q297.8 0.49 291.7 0.49L291.7 0.49Q288.16 0.49 285.69-0.24L285.69-0.24Q281.76-1.37 280.47-4.88L280.47-4.88Q279.27-8.18 279.27-14.65L279.27-14.65 279.27-15.89Q279.27-23.63 282.49-26.76L282.49-26.76Q285.4-29.54 292.19-29.54L292.19-29.54Q298.8-29.54 301.22-26.27L301.22-26.27Q302.39-24.68 302.77-22.42 303.15-20.17 303.15-18.12L303.15-18.12Q303.15-14.92 303-13.16L303-13.16Q299.56-13.01 296.83-13.01L296.83-13.01Q296.83-13.01 292.89-13.01L292.89-13.01Q286.74-13.01 283.42-13.55L283.42-13.55Q283.42-7.93 284.84-5.71L284.84-5.71Q286.57-3 291.75-3 296.92-3 301.66-5.03L301.66-5.03ZM283.42-16.41L299.02-16.41 299.02-18.75Q299.02-22.58 297.53-24.22L297.53-24.22Q295.87-26.05 291.8-26.05L291.8-26.05Q286.91-26.05 285.13-23.93L285.13-23.93Q283.42-21.9 283.42-16.41L283.42-16.41ZM338.79-4.57L340.18-1.39Q336.2 0.49 332.83 0.49L332.83 0.49Q326.73 0.49 325.9-4.74L325.9-4.74Q325.7-5.98 325.7-8.35L325.7-8.35 325.7-25.66 322.19-25.66 322.19-28.66 325.7-29.05 326.34-35.69 329.73-35.69 329.73-29.05 338.2-29.05 338.2-25.66 329.73-25.66 329.73-8.42Q329.73-5.42 330.17-4.59L330.17-4.59Q330.98-3.08 333.39-3.08 335.81-3.08 338.79-4.57L338.79-4.57ZM345.87-14.45L345.87-14.45Q345.87-20 346.43-22.19 346.99-24.39 347.81-25.67 348.62-26.95 350.02-27.81L350.02-27.81Q352.8-29.54 358.24-29.54L358.24-29.54Q366.11-29.54 368.35-25.66L368.35-25.66Q369.69-23.32 369.89-19.04L369.89-19.04Q369.96-17.02 369.96-14.58 369.96-12.13 369.8-10.02 369.65-7.91 369.18-6.23 368.72-4.54 367.89-3.28 367.06-2.03 365.69-1.17L365.69-1.17Q363 0.49 357.85 0.49L357.85 0.49Q350.14 0.49 347.72-3.32L347.72-3.32Q346.23-5.69 345.99-9.96L345.99-9.96Q345.87-12.01 345.87-14.45ZM352.51-4.27Q353.39-3.61 354.72-3.28 356.05-2.95 358.35-2.95 360.66-2.95 362.24-3.61 363.81-4.27 364.6-5.73 365.4-7.18 365.6-9.5 365.81-11.82 365.81-14.89 365.81-17.97 365.63-20.02 365.45-22.07 364.71-23.41L364.71-23.41Q363.25-26.05 358.2-26.05L358.2-26.05Q352.85-26.05 351.24-23.41L351.24-23.41Q350.43-22.07 350.21-20 349.99-17.92 349.99-15.48 349.99-13.04 350.05-11.34 350.11-9.64 350.37-8.29 350.63-6.93 351.13-5.93 351.63-4.93 352.51-4.27ZM411.93 0.1L411.34-3.25Q406.19 0.49 400.87 0.49L400.87 0.49Q394.98 0.49 393.03-3.83L393.03-3.83Q391.91-6.27 391.77-9 391.64-11.72 391.64-13.78 391.64-15.84 391.67-17.94 391.71-20.04 391.98-21.83 392.25-23.61 392.82-25.04 393.4-26.46 394.47-27.47L394.47-27.47Q396.69-29.54 401.81-29.54 406.92-29.54 411.05-27.76L411.05-27.76 411.05-41.55 415.1-41.94 415.1-13.35Q415.1-4.93 415.56-0.2L415.56-0.2 411.93 0.1ZM411.02-13.55L411.05-24.41Q406.65-25.88 402.55-25.88L402.55-25.88Q399.57-25.88 398.62-25.39 397.67-24.9 397.17-24.12 396.67-23.34 396.35-21.97L396.35-21.97Q395.79-19.41 395.79-13.53L395.79-13.53 395.79-12.99Q395.79-7.5 396.98-5.4L396.98-5.4Q398.28-3.17 401.79-3.17L401.79-3.17 402.16-3.17Q405.53-3.17 409.34-5.32L409.34-5.32Q410.39-5.91 411.14-6.49L411.14-6.49 411.14-6.54Q411.02-8.81 411.02-13.55L411.02-13.55ZM424.91-14.45L424.91-14.45Q424.91-20 425.47-22.19 426.03-24.39 426.85-25.67 427.67-26.95 429.06-27.81L429.06-27.81Q431.84-29.54 437.29-29.54L437.29-29.54Q445.15-29.54 447.4-25.66L447.4-25.66Q448.74-23.32 448.93-19.04L448.93-19.04Q449.01-17.02 449.01-14.58 449.01-12.13 448.85-10.02 448.69-7.91 448.23-6.23 447.76-4.54 446.93-3.28 446.1-2.03 444.74-1.17L444.74-1.17Q442.05 0.49 436.9 0.49L436.9 0.49Q429.18 0.49 426.77-3.32L426.77-3.32Q425.28-5.69 425.03-9.96L425.03-9.96Q424.91-12.01 424.91-14.45ZM431.55-4.27Q432.43-3.61 433.76-3.28 435.09-2.95 437.4-2.95 439.71-2.95 441.28-3.61 442.86-4.27 443.65-5.73 444.44-7.18 444.65-9.5 444.86-11.82 444.86-14.89 444.86-17.97 444.67-20.02 444.49-22.07 443.76-23.41L443.76-23.41Q442.29-26.05 437.24-26.05L437.24-26.05Q431.89-26.05 430.28-23.41L430.28-23.41Q429.48-22.07 429.26-20 429.04-17.92 429.04-15.48 429.04-13.04 429.1-11.34 429.16-9.64 429.42-8.29 429.67-6.93 430.17-5.93 430.67-4.93 431.55-4.27ZM484.43-4.57L485.82-1.39Q481.84 0.49 478.47 0.49L478.47 0.49Q472.37 0.49 471.54-4.74L471.54-4.74Q471.34-5.98 471.34-8.35L471.34-8.35 471.34-25.66 467.83-25.66 467.83-28.66 471.34-29.05 471.98-35.69 475.37-35.69 475.37-29.05 483.84-29.05 483.84-25.66 475.37-25.66 475.37-8.42Q475.37-5.42 475.81-4.59L475.81-4.59Q476.62-3.08 479.03-3.08 481.45-3.08 484.43-4.57L484.43-4.57ZM514.6-19.41L514.6-10.3Q514.6-5.44 515.06-0.2L515.06-0.2 511.45 0.1 510.84-3.3Q507.74-0.81 502.64 0.17L502.64 0.17Q500.98 0.49 499.68 0.49 498.39 0.49 497.4 0.37 496.41 0.24 495.5-0.11 494.58-0.46 493.8-1.1 493.02-1.73 492.43-2.78L492.43-2.78Q491.19-5 491.19-8.12 491.19-11.23 491.64-12.95 492.09-14.67 493.14-15.82L493.14-15.82Q495.22-18.09 500.12-18.09 505.03-18.09 510.6-16.24L510.6-16.24 510.6-19.41Q510.6-24.71 506.23-25.68L506.23-25.68Q504.81-26 502.98-26L502.98-26Q498.81-26 494.31-24.34L494.31-24.34 493.41-27.86Q494.65-28.69 499.76-29.35L499.76-29.35Q501.37-29.54 503.63-29.54 505.89-29.54 508.06-29 510.23-28.47 511.67-27.25L511.67-27.25Q514.6-24.83 514.6-19.41L514.6-19.41ZM510.5-13.18L510.5-13.18Q504.79-14.62 499.95-14.62L499.95-14.62Q496.97-14.62 496-12.92L496-12.92Q495.34-11.72 495.34-9.38 495.34-7.03 495.59-5.98 495.85-4.93 496.44-4.25L496.44-4.25Q497.58-2.95 500.22-2.95L500.22-2.95Q504.35-2.95 508.4-5.08L508.4-5.08Q509.64-5.71 510.65-6.49L510.65-6.49Q510.5-9.13 510.5-13.18ZM523.95-2.39L525.71-5.76Q530.74-2.95 535.81-2.95L535.81-2.95Q540.04-2.95 540.77-5.96L540.77-5.96Q541.01-6.98 541.01-8.46 541.01-9.94 540.67-10.75 540.33-11.57 539.53-11.98 538.72-12.38 537.39-12.57 536.06-12.77 534.01-13.12 531.96-13.48 530.25-13.92 528.54-14.36 527.34-15.19L527.34-15.19Q524.8-16.97 524.9-21.19L524.9-21.19 524.9-21.8Q524.9-26.25 527.83-28.13L527.83-28.13Q530.66-29.98 537.18-29.39L537.18-29.39Q541.62-28.98 544.26-27.86L544.26-27.86 543.11-24.17Q540.18-25.42 536.08-25.98L536.08-25.98Q534.81-26.15 533.7-26.15 532.59-26.15 531.69-25.98 530.78-25.81 530.17-25.34L530.17-25.34Q529-24.39 528.95-21.8L528.95-21.8Q528.88-18.75 530.66-17.92L530.66-17.92Q532.37-17.11 534.72-16.81 537.06-16.5 538.55-16.27 540.04-16.04 541.26-15.65 542.48-15.26 543.36-14.4L543.36-14.4Q545.19-12.67 545.14-8.37L545.14-8.37Q545.02-0.88 538.89 0.17L538.89 0.17Q537.03 0.49 535.18 0.49 533.32 0.49 531.77 0.26 530.22 0.02 528.81-0.39L528.81-0.39Q526.12-1.15 523.95-2.39L523.95-2.39ZM554.73 0L554.73-41.46 558.79-41.89 558.79-16.7Q559.76-16.5 561.14-17.7 562.52-18.9 563.59-19.98 564.67-21.07 565.82-22.36L565.82-22.36Q569.94-27.12 571.24-29.05L571.24-29.05 576.07-29.05Q575.53-27.83 573.6-25.59L573.6-25.59 570.33-21.9Q567.67-19.04 566.07-17.68 564.47-16.31 563.96-16.11L563.96-16.11 563.96-15.87 564.69-15.5Q566.28-14.75 568.84-11.47L568.84-11.47 577.95 0 572.82 0 566.62-8.13Q562.33-13.75 560.05-13.94L560.05-13.94 559.52-13.99Q559.27-14.01 559.08-14 558.88-13.99 558.79-13.99L558.79-13.99 558.79 0 554.73 0ZM582.2-2.39L583.95-5.76Q588.98-2.95 594.06-2.95L594.06-2.95Q598.28-2.95 599.02-5.96L599.02-5.96Q599.26-6.98 599.26-8.46 599.26-9.94 598.92-10.75 598.58-11.57 597.77-11.98 596.97-12.38 595.64-12.57 594.31-12.77 592.25-13.12 590.2-13.48 588.49-13.92 586.79-14.36 585.59-15.19L585.59-15.19Q583.05-16.97 583.15-21.19L583.15-21.19 583.15-21.8Q583.15-26.25 586.08-28.13L586.08-28.13Q588.91-29.98 595.43-29.39L595.43-29.39Q599.87-28.98 602.51-27.86L602.51-27.86 601.36-24.17Q598.43-25.42 594.33-25.98L594.33-25.98Q593.06-26.15 591.95-26.15 590.84-26.15 589.94-25.98 589.03-25.81 588.42-25.34L588.42-25.34Q587.25-24.39 587.2-21.8L587.2-21.8Q587.13-18.75 588.91-17.92L588.91-17.92Q590.62-17.11 592.96-16.81 595.31-16.5 596.8-16.27 598.28-16.04 599.51-15.65 600.73-15.26 601.61-14.4L601.61-14.4Q603.44-12.67 603.39-8.37L603.39-8.37Q603.27-0.88 597.14 0.17L597.14 0.17Q595.28 0.49 593.43 0.49 591.57 0.49 590.02 0.26 588.47 0.02 587.05-0.39L587.05-0.39Q584.37-1.15 582.2-2.39L582.2-2.39Z" opacity="1" transform="matrix(1,0,0,1,0,0)" fill="#222222" class="slogan-text-1" data-fill-palette-color="secondary" id="text-1"></path></svg></g></svg></g></svg></g></svg></g><g transform="matrix(1,0,0,1,0,0.4137139849284637)"><svg viewBox="0 0 171.54861513065066 165.48559397139175" height="165.48559397139175" width="171.54861513065066"><g><svg xmlns="http://www.w3.org/2000/svg" data-name="list 3 tick copy" viewBox="8.15012264251709 8.321739196777344 82.19734191894531 79.29225158691406" x="0" y="0" height="165.48559397139175" width="171.54861513065066" class="icon-icon-0" data-fill-palette-color="accent" id="icon-0"><path d="M28 9c-1 1.46-2 3-3 4.46-1.49-1.16-4.89-0.63-6.54-0.48a60.43 60.43 0 0 0-9.1 1.78 0.88 0.88 0 0 0-0.39 1.48A61 61 0 0 0 8.45 30a0.93 0.93 0 0 0 0.84 1.59q0.91-0.23 1.82-0.4c0.55-0.11 1.09-0.19 1.64-0.27 0.05 0 0.11 0.18 0.16 0.17a25.85 25.85 0 0 1 3.6-0.12h0a0.67 0.67 0 0 1 0.42 0.26 1.5 1.5 0 0 0 2.38-0.53c0.76 0 1.53 0.05 2.3 0.14h0.31c0.79 0.1 1.58 0.2 2.37 0.35a0.91 0.91 0 0 0 1-0.43c0.7 0.08 1.44-0.6 0.92-1.31-0.95-1.29-0.48-3.86-0.48-5.36V19.06c0-0.18 0-0.39 0-0.61s0-0.4 0.05-0.62v-0.06Q28 14 30.55 10.48C31.68 8.91 29.08 7.41 28 9ZM22.2 29.07L21.58 29l-1.25-0.12-0.23 0q1.73-3.95 3.78-7.71v4.26a13.17 13.17 0 0 0 0.2 3.93C23.45 29.24 22.83 29.15 22.2 29.07Zm-9.1 0l-0.78 0.1c-0.69 0.1-1.38 0.22-2.07 0.36-0.07-1-0.12-2.05-0.14-3.07 0-0.13 0-0.26 0-0.39 0-1 0-1.92 0-2.88 0-0.19 0-0.38 0-0.57s0-0.29 0-0.44c1.71 2.15 3.15 4.51 4.85 6.67l-0.6 0.06Zm5.33-14.31a13.64 13.64 0 0 1 4.17-0.06 3 3 0 0 1 0.49 0.17l0.15 0.07 0.2 0.13a1.2 1.2 0 0 1 0.3 0.32h0a106.16 106.16 0 0 0-6.19 11.86c-2.25-2.73-4-5.85-6.36-8.48a1.38 1.38 0 0 0-0.7-0.43c0.08-0.7 0.15-1.4 0.26-2.1A51.5 51.5 0 0 1 18.43 14.78Z" fill="#f500a2" data-fill-palette-color="accent"></path><path d="M28 37c-1 1.46-2 2.94-3 4.44h0c-1.48-1.17-4.9-0.64-6.55-0.48a60.44 60.44 0 0 0-9.1 1.78 0.88 0.88 0 0 0-0.39 1.48A61 61 0 0 0 8.45 58a0.93 0.93 0 0 0 0.84 1.59q0.91-0.22 1.81-0.4c0.55-0.11 1.1-0.2 1.65-0.27 0 0 0.09 0.19 0.14 0.19a25.71 25.71 0 0 1 3.59-0.1h0a0.71 0.71 0 0 1 0.45 0.27 1.5 1.5 0 0 0 2.39-0.56c0.76 0 1.53 0.05 2.29 0.14 0.1 0 0.2 0 0.3 0 0.79 0.1 1.57 0.2 2.36 0.35a0.91 0.91 0 0 0 1-0.43c0.7 0.08 1.44-0.6 0.92-1.31-0.95-1.29-0.48-3.86-0.48-5.36V47c0-0.18 0-0.38 0-0.6s0-0.43 0.05-0.66Q28 42 30.55 38.48C31.68 36.91 29.08 35.41 28 37ZM22.21 57L21.58 57l-1.23-0.12-0.22 0q1.72-3.93 3.77-7.69v4.23a13.17 13.17 0 0 0 0.2 3.93C23.45 57.21 22.83 57.12 22.21 57Zm-9.1 0l-0.8 0.11c-0.69 0.1-1.37 0.22-2.06 0.36-0.07-1-0.12-2.06-0.14-3.08 0-0.13 0-0.25 0-0.38 0-1 0-1.92 0-2.88 0-0.19 0-0.37 0-0.56s0-0.28 0-0.42c1.71 2.15 3.13 4.49 4.83 6.64l-0.62 0.07Zm5.33-14.3a13.64 13.64 0 0 1 4.17-0.06 3 3 0 0 1 0.49 0.17l0.15 0.07 0.21 0.14 0.13 0.1a1.09 1.09 0 0 1 0.17 0.22 106.17 106.17 0 0 0-6.2 11.88c-2.25-2.73-4-5.85-6.36-8.48a1.38 1.38 0 0 0-0.7-0.43c0.08-0.71 0.16-1.42 0.26-2.13A51.5 51.5 0 0 1 18.43 42.75Z" fill="#f500a2" data-fill-palette-color="accent"></path><path d="M66.13 24c7.54 1.26 14.95 2.29 22.37-0.12 1.11-0.36 0.64-2.12-0.48-1.76-9.26 3-18.42 0.37-27.73-0.9a87.81 87.81 0 0 0-25.09 0.31c-1.16 0.17-0.67 1.93 0.48 1.76C46 21.76 55.87 22.3 66.13 24Z" fill="#f500a2" data-fill-palette-color="accent"></path><path d="M61.5 48a87.81 87.81 0 0 0-25.09 0.31c-1.16 0.17-0.67 1.93 0.48 1.76 10.31-1.56 20.19-1 30.45 0.7 7.54 1.26 14.95 2.29 22.37-0.12 1.11-0.36 0.64-2.12-0.48-1.76C80 51.9 70.81 49.27 61.5 48Z" fill="#f500a2" data-fill-palette-color="accent"></path><path d="M89.23 75.65c-9.26 3-18.42 0.37-27.73-0.9a87.81 87.81 0 0 0-25.09 0.31c-1.16 0.17-0.67 1.93 0.48 1.76 10.31-1.56 20.19-1 30.45 0.7 7.54 1.26 14.95 2.29 22.37-0.12C90.83 77 90.35 75.28 89.23 75.65Z" fill="#f500a2" data-fill-palette-color="accent"></path><path d="M28 65c-1 1.45-2 2.92-3 4.42h0c-1.48-1.18-4.91-0.65-6.56-0.49a60.43 60.43 0 0 0-9.1 1.78 0.88 0.88 0 0 0-0.39 1.48A61 61 0 0 0 8.45 86a0.93 0.93 0 0 0 0.84 1.59q0.91-0.22 1.81-0.4c0.55-0.11 1.1-0.2 1.65-0.28l0.13 0a34.79 34.79 0 0 1 3.58-0.32c0.16 0.17 0.31 0.34 0.47 0.51a1.49 1.49 0 0 0 2.41-0.48c0.76 0 1.52 0.1 2.29 0.19l0.3 0c0.79 0.09 1.57 0.21 2.36 0.37a0.91 0.91 0 0 0 1-0.42c0.7 0.08 1.44-0.6 0.92-1.3-0.95-1.29-0.48-3.86-0.48-5.36V75c0-0.18 0.11-0.38 0.13-0.59s0.15-0.4 0.15-0.62h0c1-2.49 3-4.92 4.66-7.3C31.78 64.91 29.08 63.41 28 65ZM22.21 85l-0.64-0.07-1.22-0.12-0.22 0q1.72-3.92 3.75-7.66v4.2a13.17 13.17 0 0 0 0.2 3.93C23.45 85.18 22.83 85.09 22.21 85Zm-9.1 0l-0.82 0.11c-0.68 0.1-1.36 0.22-2 0.36-0.08-1.17-0.13-2.34-0.15-3.51 0-0.35 0-0.71 0-1.06 0-0.82 0-1.63 0-2.45 0-0.09 0-0.18 0-0.27 1.7 2.14 3.12 4.47 4.8 6.62l-0.64 0.07Zm5.32-14.3a13.64 13.64 0 0 1 4.17-0.06 3 3 0 0 1 0.5 0.17l0.14 0.07 0.22 0.14s0.2 0.06 0.24 0.1 0.3 0.15 0.3 0.23h0c-3 3.83-4.5 7.79-6.32 11.89-2.25-2.73-4-5.85-6.42-8.48a1.45 1.45 0 0 0-0.73-0.43c0.08-0.72 0.14-1.44 0.25-2.15A51.3 51.3 0 0 1 18.43 70.72Z" fill="#f500a2" data-fill-palette-color="accent"></path></svg></g></svg></g></svg></g><defs></defs></svg><rect width="395.52" height="109.40971611315959" fill="none" stroke="none" visibility="hidden"></rect></g></svg></g></svg>